<mxfile host="app.diagrams.net" modified="2023-12-12T18:20:41.614Z" agent="Mozilla/5.0 (Windows NT 10.0; Win64; x64) AppleWebKit/537.36 (KHTML, like Gecko) Chrome/118.0.0.0 Safari/537.36 OPR/104.0.0.0" etag="VuGxiUETKhGAP4gZQC2k" version="22.1.8" type="github">
  <diagram name="Page-1" id="ixP1Anv0WGFjQ8SYdnVo">
    <mxGraphModel dx="1393" dy="789" grid="1" gridSize="10" guides="1" tooltips="1" connect="1" arrows="1" fold="1" page="1" pageScale="1" pageWidth="827" pageHeight="1169" math="0" shadow="0">
      <root>
        <mxCell id="0" />
        <mxCell id="1" parent="0" />
        <mxCell id="Pb7jl8P6hlESrywVjSmg-1" value="Učení" style="rounded=1;whiteSpace=wrap;html=1;" vertex="1" parent="1">
          <mxGeometry x="120" y="400" width="120" height="60" as="geometry" />
        </mxCell>
        <mxCell id="Pb7jl8P6hlESrywVjSmg-2" value="Procvičování" style="rounded=1;whiteSpace=wrap;html=1;" vertex="1" parent="1">
          <mxGeometry x="540" y="400" width="120" height="60" as="geometry" />
        </mxCell>
        <mxCell id="Pb7jl8P6hlESrywVjSmg-3" value="Nemám další slovíčka" style="rounded=1;whiteSpace=wrap;html=1;" vertex="1" parent="1">
          <mxGeometry x="320" y="620" width="120" height="60" as="geometry" />
        </mxCell>
        <mxCell id="Pb7jl8P6hlESrywVjSmg-6" style="edgeStyle=orthogonalEdgeStyle;rounded=0;orthogonalLoop=1;jettySize=auto;html=1;entryX=0.5;entryY=0;entryDx=0;entryDy=0;" edge="1" parent="1" source="Pb7jl8P6hlESrywVjSmg-4" target="Pb7jl8P6hlESrywVjSmg-1">
          <mxGeometry relative="1" as="geometry" />
        </mxCell>
        <mxCell id="Pb7jl8P6hlESrywVjSmg-4" value="Start" style="strokeWidth=2;html=1;shape=mxgraph.flowchart.start_2;whiteSpace=wrap;" vertex="1" parent="1">
          <mxGeometry x="120" y="150" width="60" height="60" as="geometry" />
        </mxCell>
        <mxCell id="Pb7jl8P6hlESrywVjSmg-5" value="Konec" style="ellipse;shape=doubleEllipse;whiteSpace=wrap;html=1;" vertex="1" parent="1">
          <mxGeometry x="560" y="660" width="60" height="60" as="geometry" />
        </mxCell>
      </root>
    </mxGraphModel>
  </diagram>
</mxfile>
